<?xml version="1.0" encoding="UTF-8"?>
<svg id="Layer_1" xmlns="http://www.w3.org/2000/svg" version="1.1" viewBox="0 0 1024 400" shape-rendering="geometricPrecision">
  <!-- Generator: Adobe Illustrator 29.3.1, SVG Export Plug-In . SVG Version: 2.1.0 Build 151)  -->
  <defs>
    <style>
      .st0 {
        fill: #da291c;
      }

      .st1 {
        fill: #fff;
      }

      .st2 {
        fill: #232323;
      }
    </style>
  </defs>
  <g>
    <path class="st2" d="M239.6,154.7h17.6v77.2h-17.6v-30.5h-25.5v30.5h-17.6v-77.2h17.6v30.9h25.5v-30.9Z"/>
    <path class="st2" d="M319.1,210.7h-38.3c1.6,5,5.9,8.2,12.2,8.2s10-2.2,13.2-5.4l8.5,10.8c-5.2,5.6-14.1,9.1-22.9,9.1-16.6,0-28.3-11.4-28.3-27.4s13.1-27.7,28.1-27.7,27.6,10.5,27.6,26.5-.1,3.4-.2,5.9ZM302.8,200.9c-.2-5.2-4.8-8.6-10.8-8.6s-9.8,2.4-11.4,8.6h22.2Z"/>
    <path class="st2" d="M364.2,179.6h16.6v52.4h-16.6v-6.6c-3.6,4.9-10,8-16.6,8-14.7,0-25-11.1-25-27.5s10.3-27.6,25.2-27.6,12.8,2.8,16.4,7.6v-6.3ZM363.6,205.8c0-6.8-5.4-12.2-12.1-12.2s-12,5.5-12,12.2,4.9,12.1,12.1,12.1,12-5.7,12-12.1Z"/>
    <path class="st2" d="M390.2,232v-80.8h16.6v80.8h-16.6Z"/>
    <path class="st2" d="M449.1,179.6v12.6h-11v39.8h-16.6v-39.8h-9.5v-12.6h9.5v-18.7h16.6v18.7h11Z"/>
    <path class="st2" d="M506,203.8v28.1h-16.6v-27.1c0-8-4.9-11.2-9.1-11.2s-10.1,2.5-10.1,11.2v27.1h-16.6v-80.8h16.6v36.9c1.9-6.7,10.3-9.8,15-9.8,13.9,0,20.7,9.5,20.7,25.6Z"/>
    <path class="st2" d="M569.8,154.7c22.3,0,35.2,16.8,35.2,38.8s-12.9,38.5-35.2,38.5h-30.5v-77.2h30.5ZM569.8,216.6c11.5,0,17.5-11.1,17.5-23.1s-5.9-23.4-17.5-23.4h-12.9v46.5h12.9Z"/>
    <path class="st2" d="M651.4,179.6h16.6v52.4h-16.6v-6.6c-3.6,4.9-10,8-16.6,8-14.7,0-25-11.1-25-27.5s10.3-27.6,25.2-27.6,12.8,2.8,16.4,7.6v-6.3ZM650.8,205.8c0-6.8-5.4-12.2-12.1-12.2s-12,5.5-12,12.2,4.9,12.1,12.1,12.1,12-5.7,12-12.1Z"/>
    <path class="st2" d="M710.2,179.6v12.6h-11v39.8h-16.6v-39.8h-9.5v-12.6h9.5v-18.7h16.6v18.7h11Z"/>
    <path class="st2" d="M753.3,179.6h16.6v52.4h-16.6v-6.6c-3.6,4.9-10,8-16.6,8-14.7,0-25-11.1-25-27.5s10.3-27.6,25.2-27.6,12.8,2.8,16.4,7.6v-6.3ZM752.8,205.8c0-6.8-5.4-12.2-12.1-12.2s-12,5.5-12,12.2,4.9,12.1,12.1,12.1,12-5.7,12-12.1Z"/>
    <path class="st2" d="M799.9,209.4h17.6c0,4.9,4.9,8.7,11,8.7s10.1-2.9,10.1-8-1.7-5.8-8.5-8.1l-9.2-2.8c-17-4.6-20.3-15-20.3-22.3,0-13.9,11.9-23.7,27.2-23.7s26.1,8.9,26.1,23.9h-17.6c0-4.6-2.8-8.5-8.9-8.5s-9.1,3.7-9.1,8,.4,5,7.6,7.1l8.1,2.6c11,3.4,22.2,9,22.2,23s-14.3,24-28.5,24-27.9-9.6-27.9-23.9Z"/>
    <path class="st2" d="M902.8,179.6h16.6v52.4h-16.6v-6.6c-3.6,4.9-10,8-16.6,8-14.7,0-25-11.1-25-27.5s10.3-27.6,25.2-27.6,12.8,2.8,16.4,7.6v-6.3ZM902.3,205.8c0-6.8-5.4-12.2-12.1-12.2s-12,5.5-12,12.2,4.9,12.1,12.1,12.1,12-5.7,12-12.1Z"/>
    <path class="st2" d="M961.9,166.5c-8.2,0-11,4.3-11.1,10.3v2.8h11.2v12.6h-11.2v39.8h-16.6v-39.8h-9.8v-12.6h9.8v-3.3c0-16.5,9.1-25.2,24.2-25.2h6.6v15.4h-3.1Z"/>
    <path class="st2" d="M1018.8,210.7h-38.3c1.6,5,5.9,8.2,12.2,8.2s10-2.2,13.2-5.4l8.5,10.8c-5.2,5.6-14.1,9.1-22.9,9.1-16.6,0-28.2-11.4-28.2-27.4s13.1-27.7,28.1-27.7,27.6,10.5,27.6,26.5-.1,3.4-.2,5.9ZM1002.5,200.9c-.2-5.2-4.8-8.6-10.8-8.6s-9.8,2.4-11.4,8.6h22.2Z"/>
  </g>
  <g>
    <path class="st2" d="M133.3,152.1l-56.6-17.3v130.3s0,0,0,0c10.4-4.7,19.5-10.8,27.1-18.1,7.6-7.4,13.9-16.4,18.7-26.6,4.6-9.9,7.8-21.2,9.6-33.5,1.5-10.8,2-22.5,1.3-34.8Z"/>
    <path class="st0" d="M20.2,152.1c-.7,12.4-.3,24.1,1.3,35,1.8,12.3,5,23.6,9.7,33.5,4.7,10.1,11,19.1,18.7,26.5,7.5,7.3,16.6,13.4,27,18v-130.3l-56.6,17.3Z"/>
    <g>
      <path class="st1" d="M61.1,198.1v14.1h-8.3v-13.6c0-4-2.5-5.6-4.5-5.6s-5,1.2-5,5.6v13.6h-8.3v-40.4h8.3v18.4c1-3.4,5.2-4.9,7.5-4.9,6.9,0,10.4,4.8,10.4,12.8Z"/>
      <path class="st1" d="M85.2,171.8h8.2v40.4h-8.2v-2.9c-1.9,2.5-5.4,3.6-8.1,3.6-6.5,0-12.7-5.3-12.7-13.8s6.2-13.7,12.7-13.7,6.2,1.1,8.1,3.5v-17.1ZM84.8,199c0-3.4-2.9-6-6-6s-6,2.7-6,6,2.8,6.1,6,6.1,6-2.7,6-6.1Z"/>
      <path class="st1" d="M97,203.7h7.8c0,1.3,1,2.8,3.3,2.8s3.2-.9,3.2-2.1-.6-1.2-2.6-1.7l-3.4-.9c-7.7-2.1-7.9-6.4-7.9-8.6,0-3.9,4.4-7.8,10.7-7.8s10.9,2.3,10.8,8.8h-7.8c0-1.7-1.2-2.5-2.8-2.5s-2.6.7-2.6,1.8.9,1.6,2.2,1.9l4.5,1.2c6.6,1.8,7.1,5.9,7.1,7.7,0,5.8-6,8.5-11.3,8.5s-11.4-3.2-11.4-9.1Z"/>
    </g>
    <path class="st0" d="M75,270.8h0c-22.9-9.7-39.7-25.6-49.9-47.4-9.4-20-13-44.5-10.8-72.6.1-1.8,1.4-3.4,3.2-4l57.9-17.8c.4-.1.9-.2,1.3-.2v-8.7c-1.3,0-2.6.2-3.9.6l-57.9,17.8c-5.2,1.6-8.9,6.2-9.3,11.6-4.8,63,18.6,108.7,66,128.6h0c1.6.7,3.4,1,5.1,1h0v-8.7c-.6,0-1.2-.1-1.8-.4Z"/>
    <path class="st2" d="M147.9,150.1c-.4-5.5-4.1-10-9.3-11.6l-57.9-17.8c-1.3-.4-2.6-.6-3.9-.6v8.7h0c.4,0,.9,0,1.3.2l57.9,17.8c1.8.5,3.1,2.1,3.2,4,2.2,28-1.5,52.4-10.7,72.3-10.2,21.9-27,37.9-50,47.6-.6.2-1.2.4-1.8.4v8.7c1.8,0,3.5-.3,5.2-1,47.4-20,70.8-65.7,66-128.6Z"/>
  </g>
</svg>